<mxfile host="app.diagrams.net" modified="2021-04-09T04:57:37.339Z" agent="5.0 (Windows NT 10.0; Win64; x64) AppleWebKit/537.36 (KHTML, like Gecko) Chrome/89.0.4389.114 Safari/537.36" etag="VLCtO-PeHgbM1oIzOc11" version="14.5.8" type="github">
  <diagram id="JmrrcqtU3iOYE2V_F_GN" name="第 1 页">
    <mxGraphModel dx="1278" dy="492" grid="1" gridSize="10" guides="1" tooltips="1" connect="1" arrows="1" fold="1" page="1" pageScale="1" pageWidth="827" pageHeight="1169" math="0" shadow="0">
      <root>
        <mxCell id="0" />
        <mxCell id="1" parent="0" />
        <mxCell id="i0BST0XHVjAqwTOJ3cDh-1" style="rounded=0;orthogonalLoop=1;jettySize=auto;html=1;entryX=0.018;entryY=0.623;entryDx=0;entryDy=0;entryPerimeter=0;" edge="1" parent="1" source="i0BST0XHVjAqwTOJ3cDh-5" target="i0BST0XHVjAqwTOJ3cDh-9">
          <mxGeometry relative="1" as="geometry" />
        </mxCell>
        <mxCell id="i0BST0XHVjAqwTOJ3cDh-2" style="edgeStyle=none;rounded=0;orthogonalLoop=1;jettySize=auto;html=1;entryX=0;entryY=0.5;entryDx=0;entryDy=0;" edge="1" parent="1" source="i0BST0XHVjAqwTOJ3cDh-5" target="i0BST0XHVjAqwTOJ3cDh-8">
          <mxGeometry relative="1" as="geometry" />
        </mxCell>
        <mxCell id="i0BST0XHVjAqwTOJ3cDh-3" style="edgeStyle=none;rounded=0;orthogonalLoop=1;jettySize=auto;html=1;entryX=0;entryY=0.5;entryDx=0;entryDy=0;" edge="1" parent="1" source="i0BST0XHVjAqwTOJ3cDh-5" target="i0BST0XHVjAqwTOJ3cDh-10">
          <mxGeometry relative="1" as="geometry" />
        </mxCell>
        <mxCell id="i0BST0XHVjAqwTOJ3cDh-4" style="edgeStyle=none;rounded=0;orthogonalLoop=1;jettySize=auto;html=1;entryX=0;entryY=0.5;entryDx=0;entryDy=0;" edge="1" parent="1" source="i0BST0XHVjAqwTOJ3cDh-5" target="i0BST0XHVjAqwTOJ3cDh-11">
          <mxGeometry relative="1" as="geometry" />
        </mxCell>
        <mxCell id="i0BST0XHVjAqwTOJ3cDh-5" value="招聘信息管理" style="ellipse;whiteSpace=wrap;html=1;" vertex="1" parent="1">
          <mxGeometry x="300" y="470" width="110" height="60" as="geometry" />
        </mxCell>
        <mxCell id="i0BST0XHVjAqwTOJ3cDh-6" style="edgeStyle=orthogonalEdgeStyle;rounded=0;orthogonalLoop=1;jettySize=auto;html=1;entryX=0;entryY=0.5;entryDx=0;entryDy=0;" edge="1" parent="1" source="i0BST0XHVjAqwTOJ3cDh-7" target="i0BST0XHVjAqwTOJ3cDh-5">
          <mxGeometry relative="1" as="geometry" />
        </mxCell>
        <mxCell id="i0BST0XHVjAqwTOJ3cDh-7" value="企业发布者" style="shape=umlActor;verticalLabelPosition=bottom;verticalAlign=top;html=1;" vertex="1" parent="1">
          <mxGeometry x="200" y="460" width="50" height="80" as="geometry" />
        </mxCell>
        <mxCell id="i0BST0XHVjAqwTOJ3cDh-8" value="修改招聘信息" style="ellipse;whiteSpace=wrap;html=1;" vertex="1" parent="1">
          <mxGeometry x="490" y="525" width="110" height="60" as="geometry" />
        </mxCell>
        <mxCell id="i0BST0XHVjAqwTOJ3cDh-9" value="发布招聘信息" style="ellipse;whiteSpace=wrap;html=1;" vertex="1" parent="1">
          <mxGeometry x="490" y="360" width="110" height="60" as="geometry" />
        </mxCell>
        <mxCell id="i0BST0XHVjAqwTOJ3cDh-10" value="删除招聘信息" style="ellipse;whiteSpace=wrap;html=1;" vertex="1" parent="1">
          <mxGeometry x="490" y="440" width="110" height="60" as="geometry" />
        </mxCell>
        <mxCell id="i0BST0XHVjAqwTOJ3cDh-11" value="查找我发布的招聘" style="ellipse;whiteSpace=wrap;html=1;" vertex="1" parent="1">
          <mxGeometry x="490" y="610" width="110" height="60" as="geometry" />
        </mxCell>
        <mxCell id="i0BST0XHVjAqwTOJ3cDh-14" value="&lt;font style=&quot;font-size: 24px&quot;&gt;&lt;span style=&quot;color: rgb(0 , 0 , 0) ; font-family: &amp;#34;helvetica&amp;#34; ; font-style: normal ; font-weight: 400 ; letter-spacing: normal ; text-align: center ; text-indent: 0px ; text-transform: none ; word-spacing: 0px ; background-color: rgb(248 , 249 , 250) ; display: inline ; float: none&quot;&gt;招聘信息管理&lt;/span&gt;&lt;br&gt;&lt;/font&gt;" style="text;html=1;strokeColor=none;fillColor=none;align=center;verticalAlign=middle;whiteSpace=wrap;rounded=0;" vertex="1" parent="1">
          <mxGeometry x="300" y="280" width="210" height="40" as="geometry" />
        </mxCell>
      </root>
    </mxGraphModel>
  </diagram>
</mxfile>
